<?xml version="1.0" encoding="iso-8859-1"?>
<!-- Uploaded to: SVG Repo, www.svgrepo.com, Generator: SVG Repo Mixer Tools -->
<svg height="800px" width="800px" version="1.1" id="Layer_1" xmlns="http://www.w3.org/2000/svg" xmlns:xlink="http://www.w3.org/1999/xlink" 
	 viewBox="0 0 512 512" xml:space="preserve">
<path style="fill:#E0E0E2;" d="M256,512C114.84,512,0,397.16,0,256S114.84,0,256,0s256,114.84,256,256S397.16,512,256,512z"/>
<path style="fill:#C7C5CA;" d="M256,0v512c141.16,0,256-114.84,256-256S397.16,0,256,0z"/>
<g>
	<path style="fill:#FF623F;" d="M256,399.61c-79.186,0-143.61-64.423-143.61-143.61c0-45.856,22.245-89.351,59.506-116.351
		c8.376-6.072,20.088-4.2,26.159,4.177c6.07,8.377,4.2,20.089-4.177,26.159c-27.567,19.976-44.025,52.13-44.025,86.015
		c0,58.529,47.617,106.146,106.146,106.146S362.146,314.529,362.146,256c0-34.897-17.238-67.604-46.112-87.49
		c-8.52-5.868-10.671-17.532-4.803-26.052c5.867-8.522,17.532-10.671,26.051-4.803C376.31,164.533,399.61,208.775,399.61,256
		C399.61,335.186,335.186,399.61,256,399.61z"/>
	<path style="fill:#FF623F;" d="M256,213.523c-10.345,0-18.732-8.387-18.732-18.732V95.557c0-10.345,8.387-18.732,18.732-18.732
		c10.345,0,18.732,8.387,18.732,18.732v99.234C274.732,205.136,266.345,213.523,256,213.523z"/>
</g>
<g>
	<path style="fill:#FF0536;" d="M337.282,137.656c-8.52-5.868-20.184-3.719-26.051,4.803c-5.868,8.52-3.718,20.184,4.803,26.052
		c28.874,19.886,46.112,52.592,46.112,87.49c0,58.529-47.617,106.146-106.146,106.146v37.463c79.186,0,143.61-64.423,143.61-143.61
		C399.61,208.775,376.31,164.533,337.282,137.656z"/>
	<path style="fill:#FF0536;" d="M256,76.825v136.698c10.345,0,18.732-8.387,18.732-18.732V95.557
		C274.732,85.211,266.345,76.825,256,76.825z"/>
</g>
</svg>